<?xml version="1.0" encoding="utf-8"?>
<!-- Generator: Adobe Adobe Illustrator 24.2.0, SVG Export Plug-In . SVG Version: 6.00 Build 0)  -->
<svg version="1.1" id="Layer_1" xmlns="http://www.w3.org/2000/svg" xmlns:xlink="http://www.w3.org/1999/xlink" x="0px" y="0px"
	 width="2000px" height="2000px" viewBox="0 0 2000 2000" style="enable-background:new 0 0 2000 2000;" xml:space="preserve">
<style type="text/css">
	.st0{display:none;fill:#FFFFFF;}
	.st1{fill:#2D2D2D;}
</style>
<path class="st0" d="M1000,2000L1000,2000C447.71,2000,0,1552.29,0,1000v0C0,447.71,447.71,0,1000,0h0
	c552.28,0,1000,447.71,1000,1000v0C2000,1552.29,1552.29,2000,1000,2000z"/>
<path class="st1" d="M1016.74,547.28c-0.21,0-0.42,0-0.64,0l-2.79,287.58c-0.06,2.94-0.28,6.05-0.32,9.09
	c-0.36,28.03-0.34,56.08-1.13,84.1c-0.54,18.99-0.51,38.11-5.73,56.69c-6.99,24.84-23.4,38.72-48.6,43.25
	c-19.49,3.5-39.13,2.78-58.73,3.16c-37.1,0.72-74.21,1.18-111.31,1.77c-1.53,0.02-3.06,0.17-4.59,0.26c0.03,0.13,0.06,0.27,0.09,0.4
	c10.88,0,21.76-0.01,32.64,0c24.56,0.02,49.12-0.29,73.67,0.22c12.5,0.26,24.97,2.04,37.46,3.07c7.9,0.66,15.92,0.59,23.68,1.98
	c9.09,1.63,18.31,3.61,26.84,7.01c19.66,7.83,29.57,23.86,32.86,43.95c1.83,11.19,2.53,22.66,2.63,34.01
	c0.18,21.38-0.41,69.01-1.1,119.44c-29.74,82.72-110.53,118.31-160.4,112.75c-353.15-39.39-618.01-203.53-618.01-400.03
	c0-220.43,333.29-400.13,750.62-408.7c-505.91,8.53-910.98,223.74-910.98,487.99c0,269.66,421.83,488.26,942.19,488.26
	c0.21,0,0.42,0,0.64,0V1365c-0.21,0,0.76-137.17,0.71-136.97c-0.01,0.02-0.01,0.04-0.02,0.06c0.78-44.61,1.47-85.05,1.63-104.27
	c0.1-11.35,0.8-22.82,2.63-34.01c3.29-20.09,13.2-36.13,32.86-43.95c8.54-3.4,17.76-5.38,26.84-7.01
	c7.76-1.39,15.78-1.33,23.68-1.98c12.49-1.04,24.95-2.81,37.46-3.07c24.55-0.51,49.11-0.2,73.67-0.22c10.88-0.01,21.76,0,32.64,0
	c0.03-0.13,0.06-0.27,0.09-0.4c-1.53-0.09-3.06-0.24-4.59-0.26c-37.1-0.58-74.21-1.05-111.31-1.77c-19.6-0.38-39.24,0.34-58.73-3.16
	c-25.2-4.52-41.61-18.41-48.6-43.25c-5.23-18.58-5.2-37.69-5.73-56.69c-0.79-28.02-0.77-56.07-1.13-84.1
	c-0.04-2.92-0.26-2.27-0.31-8.31c27.23-88.48,111.63-126.56,163.09-120.83c353.15,39.39,618.01,203.53,618.01,400.03
	c0,220.43-333.29,400.13-750.62,408.7c505.91-8.53,910.98-223.74,910.98-487.99C1958.93,765.88,1537.1,547.28,1016.74,547.28z"/>
</svg>
